<svg xmlns="http://www.w3.org/2000/svg" width="236" height="158" viewBox="0 0 236 158" role="img" aria-labelledby="title desc">
<title id="title">Competitive Programming Progress - last 91 days</title>
<desc id="desc">Each square shows the number of new files first added that day. Hover for folder breakdown.</desc>
<text x="54" y="10" font-size="10" fill="#555">Jun</text>
<text x="124" y="10" font-size="10" fill="#555">Jul</text>
<text x="180" y="10" font-size="10" fill="#555">Aug</text>
<text x="0" y="30" font-size="10" fill="#777">Mon</text>
<text x="0" y="58" font-size="10" fill="#777">Wed</text>
<text x="0" y="86" font-size="10" fill="#777">Fri</text>
<rect x="40" y="20" width="12" height="12" rx="2" ry="2" fill="#ebedf0">
  <title>2025-05-26 • no new files</title>
</rect>
<rect x="40" y="34" width="12" height="12" rx="2" ry="2" fill="#ebedf0">
  <title>2025-05-27 • no new files</title>
</rect>
<rect x="40" y="48" width="12" height="12" rx="2" ry="2" fill="#ebedf0">
  <title>2025-05-28 • no new files</title>
</rect>
<rect x="40" y="62" width="12" height="12" rx="2" ry="2" fill="#ebedf0">
  <title>2025-05-29 • no new files</title>
</rect>
<rect x="40" y="76" width="12" height="12" rx="2" ry="2" fill="#ebedf0">
  <title>2025-05-30 • no new files</title>
</rect>
<rect x="40" y="90" width="12" height="12" rx="2" ry="2" fill="#ebedf0">
  <title>2025-05-31 • no new files</title>
</rect>
<rect x="40" y="104" width="12" height="12" rx="2" ry="2" fill="#ebedf0">
  <title>2025-06-01 • no new files</title>
</rect>
<rect x="54" y="20" width="12" height="12" rx="2" ry="2" fill="#ebedf0">
  <title>2025-06-02 • no new files</title>
</rect>
<rect x="54" y="34" width="12" height="12" rx="2" ry="2" fill="#ebedf0">
  <title>2025-06-03 • no new files</title>
</rect>
<rect x="54" y="48" width="12" height="12" rx="2" ry="2" fill="#ebedf0">
  <title>2025-06-04 • no new files</title>
</rect>
<rect x="54" y="62" width="12" height="12" rx="2" ry="2" fill="#ebedf0">
  <title>2025-06-05 • no new files</title>
</rect>
<rect x="54" y="76" width="12" height="12" rx="2" ry="2" fill="#ebedf0">
  <title>2025-06-06 • no new files</title>
</rect>
<rect x="54" y="90" width="12" height="12" rx="2" ry="2" fill="#ebedf0">
  <title>2025-06-07 • no new files</title>
</rect>
<rect x="54" y="104" width="12" height="12" rx="2" ry="2" fill="#ebedf0">
  <title>2025-06-08 • no new files</title>
</rect>
<rect x="68" y="20" width="12" height="12" rx="2" ry="2" fill="#ebedf0">
  <title>2025-06-09 • no new files</title>
</rect>
<rect x="68" y="34" width="12" height="12" rx="2" ry="2" fill="#ebedf0">
  <title>2025-06-10 • no new files</title>
</rect>
<rect x="68" y="48" width="12" height="12" rx="2" ry="2" fill="#ebedf0">
  <title>2025-06-11 • no new files</title>
</rect>
<rect x="68" y="62" width="12" height="12" rx="2" ry="2" fill="#ebedf0">
  <title>2025-06-12 • no new files</title>
</rect>
<rect x="68" y="76" width="12" height="12" rx="2" ry="2" fill="#ebedf0">
  <title>2025-06-13 • no new files</title>
</rect>
<rect x="68" y="90" width="12" height="12" rx="2" ry="2" fill="#ebedf0">
  <title>2025-06-14 • no new files</title>
</rect>
<rect x="68" y="104" width="12" height="12" rx="2" ry="2" fill="#ebedf0">
  <title>2025-06-15 • no new files</title>
</rect>
<rect x="82" y="20" width="12" height="12" rx="2" ry="2" fill="#ebedf0">
  <title>2025-06-16 • no new files</title>
</rect>
<rect x="82" y="34" width="12" height="12" rx="2" ry="2" fill="#ebedf0">
  <title>2025-06-17 • no new files</title>
</rect>
<rect x="82" y="48" width="12" height="12" rx="2" ry="2" fill="#ebedf0">
  <title>2025-06-18 • no new files</title>
</rect>
<rect x="82" y="62" width="12" height="12" rx="2" ry="2" fill="#ebedf0">
  <title>2025-06-19 • no new files</title>
</rect>
<rect x="82" y="76" width="12" height="12" rx="2" ry="2" fill="#ebedf0">
  <title>2025-06-20 • no new files</title>
</rect>
<rect x="82" y="90" width="12" height="12" rx="2" ry="2" fill="#ebedf0">
  <title>2025-06-21 • no new files</title>
</rect>
<rect x="82" y="104" width="12" height="12" rx="2" ry="2" fill="#ebedf0">
  <title>2025-06-22 • no new files</title>
</rect>
<rect x="96" y="20" width="12" height="12" rx="2" ry="2" fill="#ebedf0">
  <title>2025-06-23 • no new files</title>
</rect>
<rect x="96" y="34" width="12" height="12" rx="2" ry="2" fill="#ebedf0">
  <title>2025-06-24 • no new files</title>
</rect>
<rect x="96" y="48" width="12" height="12" rx="2" ry="2" fill="#ebedf0">
  <title>2025-06-25 • no new files</title>
</rect>
<rect x="96" y="62" width="12" height="12" rx="2" ry="2" fill="#ebedf0">
  <title>2025-06-26 • no new files</title>
</rect>
<rect x="96" y="76" width="12" height="12" rx="2" ry="2" fill="#ebedf0">
  <title>2025-06-27 • no new files</title>
</rect>
<rect x="96" y="90" width="12" height="12" rx="2" ry="2" fill="#ebedf0">
  <title>2025-06-28 • no new files</title>
</rect>
<rect x="96" y="104" width="12" height="12" rx="2" ry="2" fill="#ebedf0">
  <title>2025-06-29 • no new files</title>
</rect>
<rect x="110" y="20" width="12" height="12" rx="2" ry="2" fill="#ebedf0">
  <title>2025-06-30 • no new files</title>
</rect>
<rect x="110" y="34" width="12" height="12" rx="2" ry="2" fill="#ebedf0">
  <title>2025-07-01 • no new files</title>
</rect>
<rect x="110" y="48" width="12" height="12" rx="2" ry="2" fill="#ebedf0">
  <title>2025-07-02 • no new files</title>
</rect>
<rect x="110" y="62" width="12" height="12" rx="2" ry="2" fill="#ebedf0">
  <title>2025-07-03 • no new files</title>
</rect>
<rect x="110" y="76" width="12" height="12" rx="2" ry="2" fill="#ebedf0">
  <title>2025-07-04 • no new files</title>
</rect>
<rect x="110" y="90" width="12" height="12" rx="2" ry="2" fill="#ebedf0">
  <title>2025-07-05 • no new files</title>
</rect>
<rect x="110" y="104" width="12" height="12" rx="2" ry="2" fill="#ebedf0">
  <title>2025-07-06 • no new files</title>
</rect>
<rect x="124" y="20" width="12" height="12" rx="2" ry="2" fill="#ebedf0">
  <title>2025-07-07 • no new files</title>
</rect>
<rect x="124" y="34" width="12" height="12" rx="2" ry="2" fill="#ebedf0">
  <title>2025-07-08 • no new files</title>
</rect>
<rect x="124" y="48" width="12" height="12" rx="2" ry="2" fill="#ebedf0">
  <title>2025-07-09 • no new files</title>
</rect>
<rect x="124" y="62" width="12" height="12" rx="2" ry="2" fill="#ebedf0">
  <title>2025-07-10 • no new files</title>
</rect>
<rect x="124" y="76" width="12" height="12" rx="2" ry="2" fill="#ebedf0">
  <title>2025-07-11 • no new files</title>
</rect>
<rect x="124" y="90" width="12" height="12" rx="2" ry="2" fill="#ebedf0">
  <title>2025-07-12 • no new files</title>
</rect>
<rect x="124" y="104" width="12" height="12" rx="2" ry="2" fill="#ebedf0">
  <title>2025-07-13 • no new files</title>
</rect>
<rect x="138" y="20" width="12" height="12" rx="2" ry="2" fill="#ebedf0">
  <title>2025-07-14 • no new files</title>
</rect>
<rect x="138" y="34" width="12" height="12" rx="2" ry="2" fill="#ebedf0">
  <title>2025-07-15 • no new files</title>
</rect>
<rect x="138" y="48" width="12" height="12" rx="2" ry="2" fill="#ebedf0">
  <title>2025-07-16 • no new files</title>
</rect>
<rect x="138" y="62" width="12" height="12" rx="2" ry="2" fill="#ebedf0">
  <title>2025-07-17 • no new files</title>
</rect>
<rect x="138" y="76" width="12" height="12" rx="2" ry="2" fill="#ebedf0">
  <title>2025-07-18 • no new files</title>
</rect>
<rect x="138" y="90" width="12" height="12" rx="2" ry="2" fill="#ebedf0">
  <title>2025-07-19 • no new files</title>
</rect>
<rect x="138" y="104" width="12" height="12" rx="2" ry="2" fill="#ebedf0">
  <title>2025-07-20 • no new files</title>
</rect>
<rect x="152" y="20" width="12" height="12" rx="2" ry="2" fill="#ebedf0">
  <title>2025-07-21 • no new files</title>
</rect>
<rect x="152" y="34" width="12" height="12" rx="2" ry="2" fill="#ebedf0">
  <title>2025-07-22 • no new files</title>
</rect>
<rect x="152" y="48" width="12" height="12" rx="2" ry="2" fill="#ebedf0">
  <title>2025-07-23 • no new files</title>
</rect>
<rect x="152" y="62" width="12" height="12" rx="2" ry="2" fill="#ebedf0">
  <title>2025-07-24 • no new files</title>
</rect>
<rect x="152" y="76" width="12" height="12" rx="2" ry="2" fill="#ebedf0">
  <title>2025-07-25 • no new files</title>
</rect>
<rect x="152" y="90" width="12" height="12" rx="2" ry="2" fill="#ebedf0">
  <title>2025-07-26 • no new files</title>
</rect>
<rect x="152" y="104" width="12" height="12" rx="2" ry="2" fill="#ebedf0">
  <title>2025-07-27 • no new files</title>
</rect>
<rect x="166" y="20" width="12" height="12" rx="2" ry="2" fill="#ebedf0">
  <title>2025-07-28 • no new files</title>
</rect>
<rect x="166" y="34" width="12" height="12" rx="2" ry="2" fill="#ebedf0">
  <title>2025-07-29 • no new files</title>
</rect>
<rect x="166" y="48" width="12" height="12" rx="2" ry="2" fill="#ebedf0">
  <title>2025-07-30 • no new files</title>
</rect>
<rect x="166" y="62" width="12" height="12" rx="2" ry="2" fill="#ebedf0">
  <title>2025-07-31 • no new files</title>
</rect>
<rect x="166" y="76" width="12" height="12" rx="2" ry="2" fill="#239a3b">
  <title>2025-08-01 • 6 file(s)
codeforces: 3
atcoder: 2
CSES: 1</title>
</rect>
<rect x="166" y="90" width="12" height="12" rx="2" ry="2" fill="#ebedf0">
  <title>2025-08-02 • no new files</title>
</rect>
<rect x="166" y="104" width="12" height="12" rx="2" ry="2" fill="#ebedf0">
  <title>2025-08-03 • no new files</title>
</rect>
<rect x="180" y="20" width="12" height="12" rx="2" ry="2" fill="#ebedf0">
  <title>2025-08-04 • no new files</title>
</rect>
<rect x="180" y="34" width="12" height="12" rx="2" ry="2" fill="#ebedf0">
  <title>2025-08-05 • no new files</title>
</rect>
<rect x="180" y="48" width="12" height="12" rx="2" ry="2" fill="#ebedf0">
  <title>2025-08-06 • no new files</title>
</rect>
<rect x="180" y="62" width="12" height="12" rx="2" ry="2" fill="#ebedf0">
  <title>2025-08-07 • no new files</title>
</rect>
<rect x="180" y="76" width="12" height="12" rx="2" ry="2" fill="#ebedf0">
  <title>2025-08-08 • no new files</title>
</rect>
<rect x="180" y="90" width="12" height="12" rx="2" ry="2" fill="#ebedf0">
  <title>2025-08-09 • no new files</title>
</rect>
<rect x="180" y="104" width="12" height="12" rx="2" ry="2" fill="#c6e48b">
  <title>2025-08-10 • 3 file(s)
codeforces: 3</title>
</rect>
<rect x="194" y="20" width="12" height="12" rx="2" ry="2" fill="#c6e48b">
  <title>2025-08-11 • 3 file(s)
CSES: 3</title>
</rect>
<rect x="194" y="34" width="12" height="12" rx="2" ry="2" fill="#c6e48b">
  <title>2025-08-12 • 3 file(s)
CSES: 3</title>
</rect>
<rect x="194" y="48" width="12" height="12" rx="2" ry="2" fill="#ebedf0">
  <title>2025-08-13 • no new files</title>
</rect>
<rect x="194" y="62" width="12" height="12" rx="2" ry="2" fill="#ebedf0">
  <title>2025-08-14 • no new files</title>
</rect>
<rect x="194" y="76" width="12" height="12" rx="2" ry="2" fill="#ebedf0">
  <title>2025-08-15 • no new files</title>
</rect>
<rect x="194" y="90" width="12" height="12" rx="2" ry="2" fill="#239a3b">
  <title>2025-08-16 • 7 file(s)
atcoder: 4
codechef: 3</title>
</rect>
<rect x="194" y="104" width="12" height="12" rx="2" ry="2" fill="#ebedf0">
  <title>2025-08-17 • no new files</title>
</rect>
<rect x="208" y="20" width="12" height="12" rx="2" ry="2" fill="#ebedf0">
  <title>2025-08-18 • no new files</title>
</rect>
<rect x="208" y="34" width="12" height="12" rx="2" ry="2" fill="#ebedf0">
  <title>2025-08-19 • no new files</title>
</rect>
<rect x="208" y="48" width="12" height="12" rx="2" ry="2" fill="#ebedf0">
  <title>2025-08-20 • no new files</title>
</rect>
<rect x="208" y="62" width="12" height="12" rx="2" ry="2" fill="#ebedf0">
  <title>2025-08-21 • no new files</title>
</rect>
<rect x="208" y="76" width="12" height="12" rx="2" ry="2" fill="#ebedf0">
  <title>2025-08-22 • no new files</title>
</rect>
<rect x="208" y="90" width="12" height="12" rx="2" ry="2" fill="#7bc96f">
  <title>2025-08-23 • 5 file(s)
CSES: 5</title>
</rect>
<rect x="208" y="104" width="12" height="12" rx="2" ry="2" fill="#196127">
  <title>2025-08-24 • 10 file(s)
codeforces: 5
atcoder: 3
CSES: 2</title>
</rect>
<rect x="222" y="20" width="12" height="12" rx="2" ry="2" fill="#c6e48b">
  <title>2025-08-25 • 1 file(s)
codeforces: 1</title>
</rect>
<rect x="222" y="34" width="12" height="12" rx="2" ry="2" fill="#ebedf0">
  <title>2025-08-26 • no new files</title>
</rect>
<rect x="222" y="48" width="12" height="12" rx="2" ry="2" fill="#ebedf0">
  <title>2025-08-27 • no new files</title>
</rect>
<rect x="222" y="62" width="12" height="12" rx="2" ry="2" fill="#239a3b">
  <title>2025-08-28 • 7 file(s)
USACO: 3
codeforces: 2
CSES: 2</title>
</rect>
<rect x="222" y="76" width="12" height="12" rx="2" ry="2" fill="#ebedf0">
  <title>2025-08-29 • no new files</title>
</rect>
<text x="40" y="126" font-size="10" fill="#555">Intensity</text>
<rect x="40" y="132" width="12" height="12" rx="2" ry="2" fill="#ebedf0"><title>≈ 0</title></rect>
<rect x="56" y="132" width="12" height="12" rx="2" ry="2" fill="#c6e48b"><title>≈ 3</title></rect>
<rect x="72" y="132" width="12" height="12" rx="2" ry="2" fill="#7bc96f"><title>≈ 5</title></rect>
<rect x="88" y="132" width="12" height="12" rx="2" ry="2" fill="#239a3b"><title>≈ 7</title></rect>
<rect x="104" y="132" width="12" height="12" rx="2" ry="2" fill="#196127"><title>≈ 10</title></rect>
<text x="124" y="142" font-size="10" fill="#777">2025-05-31 → 2025-08-29</text>
</svg>