<svg xmlns="http://www.w3.org/2000/svg" width="884" height="290" viewBox="0 0 884 290" role="img" aria-labelledby="t d">
<title id="t">Competitive Programming Progress (last 12 months)</title>
<desc id="d">Daily additions and summary statistics. Click to open interactive version in docs/.</desc>
<style>text{font-family:system-ui,-apple-system, Segoe UI, Roboto, Ubuntu, Cantarell, Noto Sans, sans-serif;}</style>
<svg xmlns="http://www.w3.org/2000/svg" width="884" height="158" viewBox="0 0 884 158" role="img" aria-labelledby="title desc">
<title id="title"></title>
<desc id="desc">Each square shows the number of new files first added that day. Open the interactive page for hover details.</desc>
<style>text{font-family:system-ui,-apple-system, Segoe UI, Roboto, Ubuntu, Cantarell, Noto Sans, sans-serif;}</style>
<text x="68" y="12" fill="#555">Oct</text>
<text x="132" y="12" fill="#555">Nov</text>
<text x="196" y="12" fill="#555">Dec</text>
<text x="276" y="12" fill="#555">Jan</text>
<text x="340" y="12" fill="#555">Feb</text>
<text x="404" y="12" fill="#555">Mar</text>
<text x="484" y="12" fill="#555">Apr</text>
<text x="548" y="12" fill="#555">May</text>
<text x="612" y="12" fill="#555">Jun</text>
<text x="692" y="12" fill="#555">Jul</text>
<text x="756" y="12" fill="#555">Aug</text>
<text x="820" y="12" fill="#555">Sep</text>
<text x="0" y="29" font-size="10" fill="#777">Mon</text>
<text x="0" y="61" font-size="10" fill="#777">Wed</text>
<text x="0" y="93" font-size="10" fill="#777">Fri</text>
<rect x="36" y="18" width="13" height="13" rx="2" ry="2" fill="#ebedf0"><title>2024-09-23 • no new files</title></rect>
<rect x="36" y="34" width="13" height="13" rx="2" ry="2" fill="#ebedf0"><title>2024-09-24 • no new files</title></rect>
<rect x="36" y="50" width="13" height="13" rx="2" ry="2" fill="#ebedf0"><title>2024-09-25 • no new files</title></rect>
<rect x="36" y="66" width="13" height="13" rx="2" ry="2" fill="#ebedf0"><title>2024-09-26 • no new files</title></rect>
<rect x="36" y="82" width="13" height="13" rx="2" ry="2" fill="#ebedf0"><title>2024-09-27 • no new files</title></rect>
<rect x="36" y="98" width="13" height="13" rx="2" ry="2" fill="#ebedf0"><title>2024-09-28 • no new files</title></rect>
<rect x="36" y="114" width="13" height="13" rx="2" ry="2" fill="#ebedf0"><title>2024-09-29 • no new files</title></rect>
<rect x="52" y="18" width="13" height="13" rx="2" ry="2" fill="#ebedf0"><title>2024-09-30 • no new files</title></rect>
<rect x="52" y="34" width="13" height="13" rx="2" ry="2" fill="#ebedf0"><title>2024-10-01 • no new files</title></rect>
<rect x="52" y="50" width="13" height="13" rx="2" ry="2" fill="#ebedf0"><title>2024-10-02 • no new files</title></rect>
<rect x="52" y="66" width="13" height="13" rx="2" ry="2" fill="#ebedf0"><title>2024-10-03 • no new files</title></rect>
<rect x="52" y="82" width="13" height="13" rx="2" ry="2" fill="#ebedf0"><title>2024-10-04 • no new files</title></rect>
<rect x="52" y="98" width="13" height="13" rx="2" ry="2" fill="#ebedf0"><title>2024-10-05 • no new files</title></rect>
<rect x="52" y="114" width="13" height="13" rx="2" ry="2" fill="#ebedf0"><title>2024-10-06 • no new files</title></rect>
<rect x="68" y="18" width="13" height="13" rx="2" ry="2" fill="#ebedf0"><title>2024-10-07 • no new files</title></rect>
<rect x="68" y="34" width="13" height="13" rx="2" ry="2" fill="#ebedf0"><title>2024-10-08 • no new files</title></rect>
<rect x="68" y="50" width="13" height="13" rx="2" ry="2" fill="#ebedf0"><title>2024-10-09 • no new files</title></rect>
<rect x="68" y="66" width="13" height="13" rx="2" ry="2" fill="#ebedf0"><title>2024-10-10 • no new files</title></rect>
<rect x="68" y="82" width="13" height="13" rx="2" ry="2" fill="#ebedf0"><title>2024-10-11 • no new files</title></rect>
<rect x="68" y="98" width="13" height="13" rx="2" ry="2" fill="#ebedf0"><title>2024-10-12 • no new files</title></rect>
<rect x="68" y="114" width="13" height="13" rx="2" ry="2" fill="#ebedf0"><title>2024-10-13 • no new files</title></rect>
<rect x="84" y="18" width="13" height="13" rx="2" ry="2" fill="#ebedf0"><title>2024-10-14 • no new files</title></rect>
<rect x="84" y="34" width="13" height="13" rx="2" ry="2" fill="#ebedf0"><title>2024-10-15 • no new files</title></rect>
<rect x="84" y="50" width="13" height="13" rx="2" ry="2" fill="#ebedf0"><title>2024-10-16 • no new files</title></rect>
<rect x="84" y="66" width="13" height="13" rx="2" ry="2" fill="#ebedf0"><title>2024-10-17 • no new files</title></rect>
<rect x="84" y="82" width="13" height="13" rx="2" ry="2" fill="#ebedf0"><title>2024-10-18 • no new files</title></rect>
<rect x="84" y="98" width="13" height="13" rx="2" ry="2" fill="#ebedf0"><title>2024-10-19 • no new files</title></rect>
<rect x="84" y="114" width="13" height="13" rx="2" ry="2" fill="#ebedf0"><title>2024-10-20 • no new files</title></rect>
<rect x="100" y="18" width="13" height="13" rx="2" ry="2" fill="#ebedf0"><title>2024-10-21 • no new files</title></rect>
<rect x="100" y="34" width="13" height="13" rx="2" ry="2" fill="#ebedf0"><title>2024-10-22 • no new files</title></rect>
<rect x="100" y="50" width="13" height="13" rx="2" ry="2" fill="#ebedf0"><title>2024-10-23 • no new files</title></rect>
<rect x="100" y="66" width="13" height="13" rx="2" ry="2" fill="#ebedf0"><title>2024-10-24 • no new files</title></rect>
<rect x="100" y="82" width="13" height="13" rx="2" ry="2" fill="#ebedf0"><title>2024-10-25 • no new files</title></rect>
<rect x="100" y="98" width="13" height="13" rx="2" ry="2" fill="#ebedf0"><title>2024-10-26 • no new files</title></rect>
<rect x="100" y="114" width="13" height="13" rx="2" ry="2" fill="#ebedf0"><title>2024-10-27 • no new files</title></rect>
<rect x="116" y="18" width="13" height="13" rx="2" ry="2" fill="#ebedf0"><title>2024-10-28 • no new files</title></rect>
<rect x="116" y="34" width="13" height="13" rx="2" ry="2" fill="#ebedf0"><title>2024-10-29 • no new files</title></rect>
<rect x="116" y="50" width="13" height="13" rx="2" ry="2" fill="#ebedf0"><title>2024-10-30 • no new files</title></rect>
<rect x="116" y="66" width="13" height="13" rx="2" ry="2" fill="#ebedf0"><title>2024-10-31 • no new files</title></rect>
<rect x="116" y="82" width="13" height="13" rx="2" ry="2" fill="#ebedf0"><title>2024-11-01 • no new files</title></rect>
<rect x="116" y="98" width="13" height="13" rx="2" ry="2" fill="#ebedf0"><title>2024-11-02 • no new files</title></rect>
<rect x="116" y="114" width="13" height="13" rx="2" ry="2" fill="#ebedf0"><title>2024-11-03 • no new files</title></rect>
<rect x="132" y="18" width="13" height="13" rx="2" ry="2" fill="#ebedf0"><title>2024-11-04 • no new files</title></rect>
<rect x="132" y="34" width="13" height="13" rx="2" ry="2" fill="#ebedf0"><title>2024-11-05 • no new files</title></rect>
<rect x="132" y="50" width="13" height="13" rx="2" ry="2" fill="#ebedf0"><title>2024-11-06 • no new files</title></rect>
<rect x="132" y="66" width="13" height="13" rx="2" ry="2" fill="#ebedf0"><title>2024-11-07 • no new files</title></rect>
<rect x="132" y="82" width="13" height="13" rx="2" ry="2" fill="#ebedf0"><title>2024-11-08 • no new files</title></rect>
<rect x="132" y="98" width="13" height="13" rx="2" ry="2" fill="#ebedf0"><title>2024-11-09 • no new files</title></rect>
<rect x="132" y="114" width="13" height="13" rx="2" ry="2" fill="#ebedf0"><title>2024-11-10 • no new files</title></rect>
<rect x="148" y="18" width="13" height="13" rx="2" ry="2" fill="#ebedf0"><title>2024-11-11 • no new files</title></rect>
<rect x="148" y="34" width="13" height="13" rx="2" ry="2" fill="#ebedf0"><title>2024-11-12 • no new files</title></rect>
<rect x="148" y="50" width="13" height="13" rx="2" ry="2" fill="#ebedf0"><title>2024-11-13 • no new files</title></rect>
<rect x="148" y="66" width="13" height="13" rx="2" ry="2" fill="#ebedf0"><title>2024-11-14 • no new files</title></rect>
<rect x="148" y="82" width="13" height="13" rx="2" ry="2" fill="#ebedf0"><title>2024-11-15 • no new files</title></rect>
<rect x="148" y="98" width="13" height="13" rx="2" ry="2" fill="#ebedf0"><title>2024-11-16 • no new files</title></rect>
<rect x="148" y="114" width="13" height="13" rx="2" ry="2" fill="#ebedf0"><title>2024-11-17 • no new files</title></rect>
<rect x="164" y="18" width="13" height="13" rx="2" ry="2" fill="#ebedf0"><title>2024-11-18 • no new files</title></rect>
<rect x="164" y="34" width="13" height="13" rx="2" ry="2" fill="#ebedf0"><title>2024-11-19 • no new files</title></rect>
<rect x="164" y="50" width="13" height="13" rx="2" ry="2" fill="#ebedf0"><title>2024-11-20 • no new files</title></rect>
<rect x="164" y="66" width="13" height="13" rx="2" ry="2" fill="#ebedf0"><title>2024-11-21 • no new files</title></rect>
<rect x="164" y="82" width="13" height="13" rx="2" ry="2" fill="#ebedf0"><title>2024-11-22 • no new files</title></rect>
<rect x="164" y="98" width="13" height="13" rx="2" ry="2" fill="#ebedf0"><title>2024-11-23 • no new files</title></rect>
<rect x="164" y="114" width="13" height="13" rx="2" ry="2" fill="#ebedf0"><title>2024-11-24 • no new files</title></rect>
<rect x="180" y="18" width="13" height="13" rx="2" ry="2" fill="#ebedf0"><title>2024-11-25 • no new files</title></rect>
<rect x="180" y="34" width="13" height="13" rx="2" ry="2" fill="#ebedf0"><title>2024-11-26 • no new files</title></rect>
<rect x="180" y="50" width="13" height="13" rx="2" ry="2" fill="#ebedf0"><title>2024-11-27 • no new files</title></rect>
<rect x="180" y="66" width="13" height="13" rx="2" ry="2" fill="#ebedf0"><title>2024-11-28 • no new files</title></rect>
<rect x="180" y="82" width="13" height="13" rx="2" ry="2" fill="#ebedf0"><title>2024-11-29 • no new files</title></rect>
<rect x="180" y="98" width="13" height="13" rx="2" ry="2" fill="#ebedf0"><title>2024-11-30 • no new files</title></rect>
<rect x="180" y="114" width="13" height="13" rx="2" ry="2" fill="#ebedf0"><title>2024-12-01 • no new files</title></rect>
<rect x="196" y="18" width="13" height="13" rx="2" ry="2" fill="#ebedf0"><title>2024-12-02 • no new files</title></rect>
<rect x="196" y="34" width="13" height="13" rx="2" ry="2" fill="#ebedf0"><title>2024-12-03 • no new files</title></rect>
<rect x="196" y="50" width="13" height="13" rx="2" ry="2" fill="#ebedf0"><title>2024-12-04 • no new files</title></rect>
<rect x="196" y="66" width="13" height="13" rx="2" ry="2" fill="#ebedf0"><title>2024-12-05 • no new files</title></rect>
<rect x="196" y="82" width="13" height="13" rx="2" ry="2" fill="#ebedf0"><title>2024-12-06 • no new files</title></rect>
<rect x="196" y="98" width="13" height="13" rx="2" ry="2" fill="#ebedf0"><title>2024-12-07 • no new files</title></rect>
<rect x="196" y="114" width="13" height="13" rx="2" ry="2" fill="#ebedf0"><title>2024-12-08 • no new files</title></rect>
<rect x="212" y="18" width="13" height="13" rx="2" ry="2" fill="#ebedf0"><title>2024-12-09 • no new files</title></rect>
<rect x="212" y="34" width="13" height="13" rx="2" ry="2" fill="#ebedf0"><title>2024-12-10 • no new files</title></rect>
<rect x="212" y="50" width="13" height="13" rx="2" ry="2" fill="#ebedf0"><title>2024-12-11 • no new files</title></rect>
<rect x="212" y="66" width="13" height="13" rx="2" ry="2" fill="#ebedf0"><title>2024-12-12 • no new files</title></rect>
<rect x="212" y="82" width="13" height="13" rx="2" ry="2" fill="#ebedf0"><title>2024-12-13 • no new files</title></rect>
<rect x="212" y="98" width="13" height="13" rx="2" ry="2" fill="#ebedf0"><title>2024-12-14 • no new files</title></rect>
<rect x="212" y="114" width="13" height="13" rx="2" ry="2" fill="#ebedf0"><title>2024-12-15 • no new files</title></rect>
<rect x="228" y="18" width="13" height="13" rx="2" ry="2" fill="#ebedf0"><title>2024-12-16 • no new files</title></rect>
<rect x="228" y="34" width="13" height="13" rx="2" ry="2" fill="#ebedf0"><title>2024-12-17 • no new files</title></rect>
<rect x="228" y="50" width="13" height="13" rx="2" ry="2" fill="#ebedf0"><title>2024-12-18 • no new files</title></rect>
<rect x="228" y="66" width="13" height="13" rx="2" ry="2" fill="#ebedf0"><title>2024-12-19 • no new files</title></rect>
<rect x="228" y="82" width="13" height="13" rx="2" ry="2" fill="#ebedf0"><title>2024-12-20 • no new files</title></rect>
<rect x="228" y="98" width="13" height="13" rx="2" ry="2" fill="#ebedf0"><title>2024-12-21 • no new files</title></rect>
<rect x="228" y="114" width="13" height="13" rx="2" ry="2" fill="#ebedf0"><title>2024-12-22 • no new files</title></rect>
<rect x="244" y="18" width="13" height="13" rx="2" ry="2" fill="#ebedf0"><title>2024-12-23 • no new files</title></rect>
<rect x="244" y="34" width="13" height="13" rx="2" ry="2" fill="#ebedf0"><title>2024-12-24 • no new files</title></rect>
<rect x="244" y="50" width="13" height="13" rx="2" ry="2" fill="#ebedf0"><title>2024-12-25 • no new files</title></rect>
<rect x="244" y="66" width="13" height="13" rx="2" ry="2" fill="#ebedf0"><title>2024-12-26 • no new files</title></rect>
<rect x="244" y="82" width="13" height="13" rx="2" ry="2" fill="#ebedf0"><title>2024-12-27 • no new files</title></rect>
<rect x="244" y="98" width="13" height="13" rx="2" ry="2" fill="#ebedf0"><title>2024-12-28 • no new files</title></rect>
<rect x="244" y="114" width="13" height="13" rx="2" ry="2" fill="#ebedf0"><title>2024-12-29 • no new files</title></rect>
<rect x="260" y="18" width="13" height="13" rx="2" ry="2" fill="#ebedf0"><title>2024-12-30 • no new files</title></rect>
<rect x="260" y="34" width="13" height="13" rx="2" ry="2" fill="#ebedf0"><title>2024-12-31 • no new files</title></rect>
<rect x="260" y="50" width="13" height="13" rx="2" ry="2" fill="#ebedf0"><title>2025-01-01 • no new files</title></rect>
<rect x="260" y="66" width="13" height="13" rx="2" ry="2" fill="#ebedf0"><title>2025-01-02 • no new files</title></rect>
<rect x="260" y="82" width="13" height="13" rx="2" ry="2" fill="#ebedf0"><title>2025-01-03 • no new files</title></rect>
<rect x="260" y="98" width="13" height="13" rx="2" ry="2" fill="#ebedf0"><title>2025-01-04 • no new files</title></rect>
<rect x="260" y="114" width="13" height="13" rx="2" ry="2" fill="#ebedf0"><title>2025-01-05 • no new files</title></rect>
<rect x="276" y="18" width="13" height="13" rx="2" ry="2" fill="#ebedf0"><title>2025-01-06 • no new files</title></rect>
<rect x="276" y="34" width="13" height="13" rx="2" ry="2" fill="#ebedf0"><title>2025-01-07 • no new files</title></rect>
<rect x="276" y="50" width="13" height="13" rx="2" ry="2" fill="#ebedf0"><title>2025-01-08 • no new files</title></rect>
<rect x="276" y="66" width="13" height="13" rx="2" ry="2" fill="#ebedf0"><title>2025-01-09 • no new files</title></rect>
<rect x="276" y="82" width="13" height="13" rx="2" ry="2" fill="#ebedf0"><title>2025-01-10 • no new files</title></rect>
<rect x="276" y="98" width="13" height="13" rx="2" ry="2" fill="#ebedf0"><title>2025-01-11 • no new files</title></rect>
<rect x="276" y="114" width="13" height="13" rx="2" ry="2" fill="#ebedf0"><title>2025-01-12 • no new files</title></rect>
<rect x="292" y="18" width="13" height="13" rx="2" ry="2" fill="#ebedf0"><title>2025-01-13 • no new files</title></rect>
<rect x="292" y="34" width="13" height="13" rx="2" ry="2" fill="#ebedf0"><title>2025-01-14 • no new files</title></rect>
<rect x="292" y="50" width="13" height="13" rx="2" ry="2" fill="#ebedf0"><title>2025-01-15 • no new files</title></rect>
<rect x="292" y="66" width="13" height="13" rx="2" ry="2" fill="#ebedf0"><title>2025-01-16 • no new files</title></rect>
<rect x="292" y="82" width="13" height="13" rx="2" ry="2" fill="#ebedf0"><title>2025-01-17 • no new files</title></rect>
<rect x="292" y="98" width="13" height="13" rx="2" ry="2" fill="#ebedf0"><title>2025-01-18 • no new files</title></rect>
<rect x="292" y="114" width="13" height="13" rx="2" ry="2" fill="#ebedf0"><title>2025-01-19 • no new files</title></rect>
<rect x="308" y="18" width="13" height="13" rx="2" ry="2" fill="#ebedf0"><title>2025-01-20 • no new files</title></rect>
<rect x="308" y="34" width="13" height="13" rx="2" ry="2" fill="#ebedf0"><title>2025-01-21 • no new files</title></rect>
<rect x="308" y="50" width="13" height="13" rx="2" ry="2" fill="#ebedf0"><title>2025-01-22 • no new files</title></rect>
<rect x="308" y="66" width="13" height="13" rx="2" ry="2" fill="#ebedf0"><title>2025-01-23 • no new files</title></rect>
<rect x="308" y="82" width="13" height="13" rx="2" ry="2" fill="#ebedf0"><title>2025-01-24 • no new files</title></rect>
<rect x="308" y="98" width="13" height="13" rx="2" ry="2" fill="#ebedf0"><title>2025-01-25 • no new files</title></rect>
<rect x="308" y="114" width="13" height="13" rx="2" ry="2" fill="#ebedf0"><title>2025-01-26 • no new files</title></rect>
<rect x="324" y="18" width="13" height="13" rx="2" ry="2" fill="#ebedf0"><title>2025-01-27 • no new files</title></rect>
<rect x="324" y="34" width="13" height="13" rx="2" ry="2" fill="#ebedf0"><title>2025-01-28 • no new files</title></rect>
<rect x="324" y="50" width="13" height="13" rx="2" ry="2" fill="#ebedf0"><title>2025-01-29 • no new files</title></rect>
<rect x="324" y="66" width="13" height="13" rx="2" ry="2" fill="#ebedf0"><title>2025-01-30 • no new files</title></rect>
<rect x="324" y="82" width="13" height="13" rx="2" ry="2" fill="#ebedf0"><title>2025-01-31 • no new files</title></rect>
<rect x="324" y="98" width="13" height="13" rx="2" ry="2" fill="#ebedf0"><title>2025-02-01 • no new files</title></rect>
<rect x="324" y="114" width="13" height="13" rx="2" ry="2" fill="#ebedf0"><title>2025-02-02 • no new files</title></rect>
<rect x="340" y="18" width="13" height="13" rx="2" ry="2" fill="#ebedf0"><title>2025-02-03 • no new files</title></rect>
<rect x="340" y="34" width="13" height="13" rx="2" ry="2" fill="#ebedf0"><title>2025-02-04 • no new files</title></rect>
<rect x="340" y="50" width="13" height="13" rx="2" ry="2" fill="#ebedf0"><title>2025-02-05 • no new files</title></rect>
<rect x="340" y="66" width="13" height="13" rx="2" ry="2" fill="#ebedf0"><title>2025-02-06 • no new files</title></rect>
<rect x="340" y="82" width="13" height="13" rx="2" ry="2" fill="#ebedf0"><title>2025-02-07 • no new files</title></rect>
<rect x="340" y="98" width="13" height="13" rx="2" ry="2" fill="#ebedf0"><title>2025-02-08 • no new files</title></rect>
<rect x="340" y="114" width="13" height="13" rx="2" ry="2" fill="#ebedf0"><title>2025-02-09 • no new files</title></rect>
<rect x="356" y="18" width="13" height="13" rx="2" ry="2" fill="#ebedf0"><title>2025-02-10 • no new files</title></rect>
<rect x="356" y="34" width="13" height="13" rx="2" ry="2" fill="#ebedf0"><title>2025-02-11 • no new files</title></rect>
<rect x="356" y="50" width="13" height="13" rx="2" ry="2" fill="#ebedf0"><title>2025-02-12 • no new files</title></rect>
<rect x="356" y="66" width="13" height="13" rx="2" ry="2" fill="#ebedf0"><title>2025-02-13 • no new files</title></rect>
<rect x="356" y="82" width="13" height="13" rx="2" ry="2" fill="#ebedf0"><title>2025-02-14 • no new files</title></rect>
<rect x="356" y="98" width="13" height="13" rx="2" ry="2" fill="#ebedf0"><title>2025-02-15 • no new files</title></rect>
<rect x="356" y="114" width="13" height="13" rx="2" ry="2" fill="#ebedf0"><title>2025-02-16 • no new files</title></rect>
<rect x="372" y="18" width="13" height="13" rx="2" ry="2" fill="#ebedf0"><title>2025-02-17 • no new files</title></rect>
<rect x="372" y="34" width="13" height="13" rx="2" ry="2" fill="#ebedf0"><title>2025-02-18 • no new files</title></rect>
<rect x="372" y="50" width="13" height="13" rx="2" ry="2" fill="#ebedf0"><title>2025-02-19 • no new files</title></rect>
<rect x="372" y="66" width="13" height="13" rx="2" ry="2" fill="#ebedf0"><title>2025-02-20 • no new files</title></rect>
<rect x="372" y="82" width="13" height="13" rx="2" ry="2" fill="#ebedf0"><title>2025-02-21 • no new files</title></rect>
<rect x="372" y="98" width="13" height="13" rx="2" ry="2" fill="#ebedf0"><title>2025-02-22 • no new files</title></rect>
<rect x="372" y="114" width="13" height="13" rx="2" ry="2" fill="#ebedf0"><title>2025-02-23 • no new files</title></rect>
<rect x="388" y="18" width="13" height="13" rx="2" ry="2" fill="#ebedf0"><title>2025-02-24 • no new files</title></rect>
<rect x="388" y="34" width="13" height="13" rx="2" ry="2" fill="#ebedf0"><title>2025-02-25 • no new files</title></rect>
<rect x="388" y="50" width="13" height="13" rx="2" ry="2" fill="#ebedf0"><title>2025-02-26 • no new files</title></rect>
<rect x="388" y="66" width="13" height="13" rx="2" ry="2" fill="#ebedf0"><title>2025-02-27 • no new files</title></rect>
<rect x="388" y="82" width="13" height="13" rx="2" ry="2" fill="#ebedf0"><title>2025-02-28 • no new files</title></rect>
<rect x="388" y="98" width="13" height="13" rx="2" ry="2" fill="#ebedf0"><title>2025-03-01 • no new files</title></rect>
<rect x="388" y="114" width="13" height="13" rx="2" ry="2" fill="#ebedf0"><title>2025-03-02 • no new files</title></rect>
<rect x="404" y="18" width="13" height="13" rx="2" ry="2" fill="#ebedf0"><title>2025-03-03 • no new files</title></rect>
<rect x="404" y="34" width="13" height="13" rx="2" ry="2" fill="#ebedf0"><title>2025-03-04 • no new files</title></rect>
<rect x="404" y="50" width="13" height="13" rx="2" ry="2" fill="#ebedf0"><title>2025-03-05 • no new files</title></rect>
<rect x="404" y="66" width="13" height="13" rx="2" ry="2" fill="#ebedf0"><title>2025-03-06 • no new files</title></rect>
<rect x="404" y="82" width="13" height="13" rx="2" ry="2" fill="#ebedf0"><title>2025-03-07 • no new files</title></rect>
<rect x="404" y="98" width="13" height="13" rx="2" ry="2" fill="#ebedf0"><title>2025-03-08 • no new files</title></rect>
<rect x="404" y="114" width="13" height="13" rx="2" ry="2" fill="#ebedf0"><title>2025-03-09 • no new files</title></rect>
<rect x="420" y="18" width="13" height="13" rx="2" ry="2" fill="#ebedf0"><title>2025-03-10 • no new files</title></rect>
<rect x="420" y="34" width="13" height="13" rx="2" ry="2" fill="#ebedf0"><title>2025-03-11 • no new files</title></rect>
<rect x="420" y="50" width="13" height="13" rx="2" ry="2" fill="#ebedf0"><title>2025-03-12 • no new files</title></rect>
<rect x="420" y="66" width="13" height="13" rx="2" ry="2" fill="#ebedf0"><title>2025-03-13 • no new files</title></rect>
<rect x="420" y="82" width="13" height="13" rx="2" ry="2" fill="#ebedf0"><title>2025-03-14 • no new files</title></rect>
<rect x="420" y="98" width="13" height="13" rx="2" ry="2" fill="#ebedf0"><title>2025-03-15 • no new files</title></rect>
<rect x="420" y="114" width="13" height="13" rx="2" ry="2" fill="#ebedf0"><title>2025-03-16 • no new files</title></rect>
<rect x="436" y="18" width="13" height="13" rx="2" ry="2" fill="#ebedf0"><title>2025-03-17 • no new files</title></rect>
<rect x="436" y="34" width="13" height="13" rx="2" ry="2" fill="#ebedf0"><title>2025-03-18 • no new files</title></rect>
<rect x="436" y="50" width="13" height="13" rx="2" ry="2" fill="#ebedf0"><title>2025-03-19 • no new files</title></rect>
<rect x="436" y="66" width="13" height="13" rx="2" ry="2" fill="#ebedf0"><title>2025-03-20 • no new files</title></rect>
<rect x="436" y="82" width="13" height="13" rx="2" ry="2" fill="#ebedf0"><title>2025-03-21 • no new files</title></rect>
<rect x="436" y="98" width="13" height="13" rx="2" ry="2" fill="#ebedf0"><title>2025-03-22 • no new files</title></rect>
<rect x="436" y="114" width="13" height="13" rx="2" ry="2" fill="#ebedf0"><title>2025-03-23 • no new files</title></rect>
<rect x="452" y="18" width="13" height="13" rx="2" ry="2" fill="#ebedf0"><title>2025-03-24 • no new files</title></rect>
<rect x="452" y="34" width="13" height="13" rx="2" ry="2" fill="#ebedf0"><title>2025-03-25 • no new files</title></rect>
<rect x="452" y="50" width="13" height="13" rx="2" ry="2" fill="#ebedf0"><title>2025-03-26 • no new files</title></rect>
<rect x="452" y="66" width="13" height="13" rx="2" ry="2" fill="#ebedf0"><title>2025-03-27 • no new files</title></rect>
<rect x="452" y="82" width="13" height="13" rx="2" ry="2" fill="#ebedf0"><title>2025-03-28 • no new files</title></rect>
<rect x="452" y="98" width="13" height="13" rx="2" ry="2" fill="#ebedf0"><title>2025-03-29 • no new files</title></rect>
<rect x="452" y="114" width="13" height="13" rx="2" ry="2" fill="#ebedf0"><title>2025-03-30 • no new files</title></rect>
<rect x="468" y="18" width="13" height="13" rx="2" ry="2" fill="#ebedf0"><title>2025-03-31 • no new files</title></rect>
<rect x="468" y="34" width="13" height="13" rx="2" ry="2" fill="#ebedf0"><title>2025-04-01 • no new files</title></rect>
<rect x="468" y="50" width="13" height="13" rx="2" ry="2" fill="#ebedf0"><title>2025-04-02 • no new files</title></rect>
<rect x="468" y="66" width="13" height="13" rx="2" ry="2" fill="#ebedf0"><title>2025-04-03 • no new files</title></rect>
<rect x="468" y="82" width="13" height="13" rx="2" ry="2" fill="#ebedf0"><title>2025-04-04 • no new files</title></rect>
<rect x="468" y="98" width="13" height="13" rx="2" ry="2" fill="#ebedf0"><title>2025-04-05 • no new files</title></rect>
<rect x="468" y="114" width="13" height="13" rx="2" ry="2" fill="#ebedf0"><title>2025-04-06 • no new files</title></rect>
<rect x="484" y="18" width="13" height="13" rx="2" ry="2" fill="#ebedf0"><title>2025-04-07 • no new files</title></rect>
<rect x="484" y="34" width="13" height="13" rx="2" ry="2" fill="#ebedf0"><title>2025-04-08 • no new files</title></rect>
<rect x="484" y="50" width="13" height="13" rx="2" ry="2" fill="#ebedf0"><title>2025-04-09 • no new files</title></rect>
<rect x="484" y="66" width="13" height="13" rx="2" ry="2" fill="#ebedf0"><title>2025-04-10 • no new files</title></rect>
<rect x="484" y="82" width="13" height="13" rx="2" ry="2" fill="#ebedf0"><title>2025-04-11 • no new files</title></rect>
<rect x="484" y="98" width="13" height="13" rx="2" ry="2" fill="#ebedf0"><title>2025-04-12 • no new files</title></rect>
<rect x="484" y="114" width="13" height="13" rx="2" ry="2" fill="#ebedf0"><title>2025-04-13 • no new files</title></rect>
<rect x="500" y="18" width="13" height="13" rx="2" ry="2" fill="#ebedf0"><title>2025-04-14 • no new files</title></rect>
<rect x="500" y="34" width="13" height="13" rx="2" ry="2" fill="#ebedf0"><title>2025-04-15 • no new files</title></rect>
<rect x="500" y="50" width="13" height="13" rx="2" ry="2" fill="#ebedf0"><title>2025-04-16 • no new files</title></rect>
<rect x="500" y="66" width="13" height="13" rx="2" ry="2" fill="#ebedf0"><title>2025-04-17 • no new files</title></rect>
<rect x="500" y="82" width="13" height="13" rx="2" ry="2" fill="#ebedf0"><title>2025-04-18 • no new files</title></rect>
<rect x="500" y="98" width="13" height="13" rx="2" ry="2" fill="#ebedf0"><title>2025-04-19 • no new files</title></rect>
<rect x="500" y="114" width="13" height="13" rx="2" ry="2" fill="#ebedf0"><title>2025-04-20 • no new files</title></rect>
<rect x="516" y="18" width="13" height="13" rx="2" ry="2" fill="#ebedf0"><title>2025-04-21 • no new files</title></rect>
<rect x="516" y="34" width="13" height="13" rx="2" ry="2" fill="#ebedf0"><title>2025-04-22 • no new files</title></rect>
<rect x="516" y="50" width="13" height="13" rx="2" ry="2" fill="#ebedf0"><title>2025-04-23 • no new files</title></rect>
<rect x="516" y="66" width="13" height="13" rx="2" ry="2" fill="#ebedf0"><title>2025-04-24 • no new files</title></rect>
<rect x="516" y="82" width="13" height="13" rx="2" ry="2" fill="#ebedf0"><title>2025-04-25 • no new files</title></rect>
<rect x="516" y="98" width="13" height="13" rx="2" ry="2" fill="#ebedf0"><title>2025-04-26 • no new files</title></rect>
<rect x="516" y="114" width="13" height="13" rx="2" ry="2" fill="#ebedf0"><title>2025-04-27 • no new files</title></rect>
<rect x="532" y="18" width="13" height="13" rx="2" ry="2" fill="#ebedf0"><title>2025-04-28 • no new files</title></rect>
<rect x="532" y="34" width="13" height="13" rx="2" ry="2" fill="#ebedf0"><title>2025-04-29 • no new files</title></rect>
<rect x="532" y="50" width="13" height="13" rx="2" ry="2" fill="#ebedf0"><title>2025-04-30 • no new files</title></rect>
<rect x="532" y="66" width="13" height="13" rx="2" ry="2" fill="#ebedf0"><title>2025-05-01 • no new files</title></rect>
<rect x="532" y="82" width="13" height="13" rx="2" ry="2" fill="#ebedf0"><title>2025-05-02 • no new files</title></rect>
<rect x="532" y="98" width="13" height="13" rx="2" ry="2" fill="#ebedf0"><title>2025-05-03 • no new files</title></rect>
<rect x="532" y="114" width="13" height="13" rx="2" ry="2" fill="#ebedf0"><title>2025-05-04 • no new files</title></rect>
<rect x="548" y="18" width="13" height="13" rx="2" ry="2" fill="#ebedf0"><title>2025-05-05 • no new files</title></rect>
<rect x="548" y="34" width="13" height="13" rx="2" ry="2" fill="#ebedf0"><title>2025-05-06 • no new files</title></rect>
<rect x="548" y="50" width="13" height="13" rx="2" ry="2" fill="#ebedf0"><title>2025-05-07 • no new files</title></rect>
<rect x="548" y="66" width="13" height="13" rx="2" ry="2" fill="#ebedf0"><title>2025-05-08 • no new files</title></rect>
<rect x="548" y="82" width="13" height="13" rx="2" ry="2" fill="#ebedf0"><title>2025-05-09 • no new files</title></rect>
<rect x="548" y="98" width="13" height="13" rx="2" ry="2" fill="#ebedf0"><title>2025-05-10 • no new files</title></rect>
<rect x="548" y="114" width="13" height="13" rx="2" ry="2" fill="#ebedf0"><title>2025-05-11 • no new files</title></rect>
<rect x="564" y="18" width="13" height="13" rx="2" ry="2" fill="#ebedf0"><title>2025-05-12 • no new files</title></rect>
<rect x="564" y="34" width="13" height="13" rx="2" ry="2" fill="#ebedf0"><title>2025-05-13 • no new files</title></rect>
<rect x="564" y="50" width="13" height="13" rx="2" ry="2" fill="#ebedf0"><title>2025-05-14 • no new files</title></rect>
<rect x="564" y="66" width="13" height="13" rx="2" ry="2" fill="#ebedf0"><title>2025-05-15 • no new files</title></rect>
<rect x="564" y="82" width="13" height="13" rx="2" ry="2" fill="#ebedf0"><title>2025-05-16 • no new files</title></rect>
<rect x="564" y="98" width="13" height="13" rx="2" ry="2" fill="#ebedf0"><title>2025-05-17 • no new files</title></rect>
<rect x="564" y="114" width="13" height="13" rx="2" ry="2" fill="#ebedf0"><title>2025-05-18 • no new files</title></rect>
<rect x="580" y="18" width="13" height="13" rx="2" ry="2" fill="#ebedf0"><title>2025-05-19 • no new files</title></rect>
<rect x="580" y="34" width="13" height="13" rx="2" ry="2" fill="#ebedf0"><title>2025-05-20 • no new files</title></rect>
<rect x="580" y="50" width="13" height="13" rx="2" ry="2" fill="#ebedf0"><title>2025-05-21 • no new files</title></rect>
<rect x="580" y="66" width="13" height="13" rx="2" ry="2" fill="#ebedf0"><title>2025-05-22 • no new files</title></rect>
<rect x="580" y="82" width="13" height="13" rx="2" ry="2" fill="#ebedf0"><title>2025-05-23 • no new files</title></rect>
<rect x="580" y="98" width="13" height="13" rx="2" ry="2" fill="#ebedf0"><title>2025-05-24 • no new files</title></rect>
<rect x="580" y="114" width="13" height="13" rx="2" ry="2" fill="#ebedf0"><title>2025-05-25 • no new files</title></rect>
<rect x="596" y="18" width="13" height="13" rx="2" ry="2" fill="#ebedf0"><title>2025-05-26 • no new files</title></rect>
<rect x="596" y="34" width="13" height="13" rx="2" ry="2" fill="#ebedf0"><title>2025-05-27 • no new files</title></rect>
<rect x="596" y="50" width="13" height="13" rx="2" ry="2" fill="#ebedf0"><title>2025-05-28 • no new files</title></rect>
<rect x="596" y="66" width="13" height="13" rx="2" ry="2" fill="#ebedf0"><title>2025-05-29 • no new files</title></rect>
<rect x="596" y="82" width="13" height="13" rx="2" ry="2" fill="#ebedf0"><title>2025-05-30 • no new files</title></rect>
<rect x="596" y="98" width="13" height="13" rx="2" ry="2" fill="#ebedf0"><title>2025-05-31 • no new files</title></rect>
<rect x="596" y="114" width="13" height="13" rx="2" ry="2" fill="#ebedf0"><title>2025-06-01 • no new files</title></rect>
<rect x="612" y="18" width="13" height="13" rx="2" ry="2" fill="#ebedf0"><title>2025-06-02 • no new files</title></rect>
<rect x="612" y="34" width="13" height="13" rx="2" ry="2" fill="#ebedf0"><title>2025-06-03 • no new files</title></rect>
<rect x="612" y="50" width="13" height="13" rx="2" ry="2" fill="#ebedf0"><title>2025-06-04 • no new files</title></rect>
<rect x="612" y="66" width="13" height="13" rx="2" ry="2" fill="#ebedf0"><title>2025-06-05 • no new files</title></rect>
<rect x="612" y="82" width="13" height="13" rx="2" ry="2" fill="#ebedf0"><title>2025-06-06 • no new files</title></rect>
<rect x="612" y="98" width="13" height="13" rx="2" ry="2" fill="#ebedf0"><title>2025-06-07 • no new files</title></rect>
<rect x="612" y="114" width="13" height="13" rx="2" ry="2" fill="#ebedf0"><title>2025-06-08 • no new files</title></rect>
<rect x="628" y="18" width="13" height="13" rx="2" ry="2" fill="#ebedf0"><title>2025-06-09 • no new files</title></rect>
<rect x="628" y="34" width="13" height="13" rx="2" ry="2" fill="#ebedf0"><title>2025-06-10 • no new files</title></rect>
<rect x="628" y="50" width="13" height="13" rx="2" ry="2" fill="#ebedf0"><title>2025-06-11 • no new files</title></rect>
<rect x="628" y="66" width="13" height="13" rx="2" ry="2" fill="#ebedf0"><title>2025-06-12 • no new files</title></rect>
<rect x="628" y="82" width="13" height="13" rx="2" ry="2" fill="#ebedf0"><title>2025-06-13 • no new files</title></rect>
<rect x="628" y="98" width="13" height="13" rx="2" ry="2" fill="#ebedf0"><title>2025-06-14 • no new files</title></rect>
<rect x="628" y="114" width="13" height="13" rx="2" ry="2" fill="#ebedf0"><title>2025-06-15 • no new files</title></rect>
<rect x="644" y="18" width="13" height="13" rx="2" ry="2" fill="#ebedf0"><title>2025-06-16 • no new files</title></rect>
<rect x="644" y="34" width="13" height="13" rx="2" ry="2" fill="#ebedf0"><title>2025-06-17 • no new files</title></rect>
<rect x="644" y="50" width="13" height="13" rx="2" ry="2" fill="#ebedf0"><title>2025-06-18 • no new files</title></rect>
<rect x="644" y="66" width="13" height="13" rx="2" ry="2" fill="#ebedf0"><title>2025-06-19 • no new files</title></rect>
<rect x="644" y="82" width="13" height="13" rx="2" ry="2" fill="#ebedf0"><title>2025-06-20 • no new files</title></rect>
<rect x="644" y="98" width="13" height="13" rx="2" ry="2" fill="#ebedf0"><title>2025-06-21 • no new files</title></rect>
<rect x="644" y="114" width="13" height="13" rx="2" ry="2" fill="#ebedf0"><title>2025-06-22 • no new files</title></rect>
<rect x="660" y="18" width="13" height="13" rx="2" ry="2" fill="#ebedf0"><title>2025-06-23 • no new files</title></rect>
<rect x="660" y="34" width="13" height="13" rx="2" ry="2" fill="#ebedf0"><title>2025-06-24 • no new files</title></rect>
<rect x="660" y="50" width="13" height="13" rx="2" ry="2" fill="#ebedf0"><title>2025-06-25 • no new files</title></rect>
<rect x="660" y="66" width="13" height="13" rx="2" ry="2" fill="#ebedf0"><title>2025-06-26 • no new files</title></rect>
<rect x="660" y="82" width="13" height="13" rx="2" ry="2" fill="#ebedf0"><title>2025-06-27 • no new files</title></rect>
<rect x="660" y="98" width="13" height="13" rx="2" ry="2" fill="#ebedf0"><title>2025-06-28 • no new files</title></rect>
<rect x="660" y="114" width="13" height="13" rx="2" ry="2" fill="#ebedf0"><title>2025-06-29 • no new files</title></rect>
<rect x="676" y="18" width="13" height="13" rx="2" ry="2" fill="#ebedf0"><title>2025-06-30 • no new files</title></rect>
<rect x="676" y="34" width="13" height="13" rx="2" ry="2" fill="#ebedf0"><title>2025-07-01 • no new files</title></rect>
<rect x="676" y="50" width="13" height="13" rx="2" ry="2" fill="#ebedf0"><title>2025-07-02 • no new files</title></rect>
<rect x="676" y="66" width="13" height="13" rx="2" ry="2" fill="#ebedf0"><title>2025-07-03 • no new files</title></rect>
<rect x="676" y="82" width="13" height="13" rx="2" ry="2" fill="#ebedf0"><title>2025-07-04 • no new files</title></rect>
<rect x="676" y="98" width="13" height="13" rx="2" ry="2" fill="#ebedf0"><title>2025-07-05 • no new files</title></rect>
<rect x="676" y="114" width="13" height="13" rx="2" ry="2" fill="#ebedf0"><title>2025-07-06 • no new files</title></rect>
<rect x="692" y="18" width="13" height="13" rx="2" ry="2" fill="#ebedf0"><title>2025-07-07 • no new files</title></rect>
<rect x="692" y="34" width="13" height="13" rx="2" ry="2" fill="#ebedf0"><title>2025-07-08 • no new files</title></rect>
<rect x="692" y="50" width="13" height="13" rx="2" ry="2" fill="#ebedf0"><title>2025-07-09 • no new files</title></rect>
<rect x="692" y="66" width="13" height="13" rx="2" ry="2" fill="#ebedf0"><title>2025-07-10 • no new files</title></rect>
<rect x="692" y="82" width="13" height="13" rx="2" ry="2" fill="#ebedf0"><title>2025-07-11 • no new files</title></rect>
<rect x="692" y="98" width="13" height="13" rx="2" ry="2" fill="#ebedf0"><title>2025-07-12 • no new files</title></rect>
<rect x="692" y="114" width="13" height="13" rx="2" ry="2" fill="#ebedf0"><title>2025-07-13 • no new files</title></rect>
<rect x="708" y="18" width="13" height="13" rx="2" ry="2" fill="#ebedf0"><title>2025-07-14 • no new files</title></rect>
<rect x="708" y="34" width="13" height="13" rx="2" ry="2" fill="#ebedf0"><title>2025-07-15 • no new files</title></rect>
<rect x="708" y="50" width="13" height="13" rx="2" ry="2" fill="#ebedf0"><title>2025-07-16 • no new files</title></rect>
<rect x="708" y="66" width="13" height="13" rx="2" ry="2" fill="#ebedf0"><title>2025-07-17 • no new files</title></rect>
<rect x="708" y="82" width="13" height="13" rx="2" ry="2" fill="#ebedf0"><title>2025-07-18 • no new files</title></rect>
<rect x="708" y="98" width="13" height="13" rx="2" ry="2" fill="#ebedf0"><title>2025-07-19 • no new files</title></rect>
<rect x="708" y="114" width="13" height="13" rx="2" ry="2" fill="#ebedf0"><title>2025-07-20 • no new files</title></rect>
<rect x="724" y="18" width="13" height="13" rx="2" ry="2" fill="#ebedf0"><title>2025-07-21 • no new files</title></rect>
<rect x="724" y="34" width="13" height="13" rx="2" ry="2" fill="#ebedf0"><title>2025-07-22 • no new files</title></rect>
<rect x="724" y="50" width="13" height="13" rx="2" ry="2" fill="#ebedf0"><title>2025-07-23 • no new files</title></rect>
<rect x="724" y="66" width="13" height="13" rx="2" ry="2" fill="#ebedf0"><title>2025-07-24 • no new files</title></rect>
<rect x="724" y="82" width="13" height="13" rx="2" ry="2" fill="#ebedf0"><title>2025-07-25 • no new files</title></rect>
<rect x="724" y="98" width="13" height="13" rx="2" ry="2" fill="#ebedf0"><title>2025-07-26 • no new files</title></rect>
<rect x="724" y="114" width="13" height="13" rx="2" ry="2" fill="#ebedf0"><title>2025-07-27 • no new files</title></rect>
<rect x="740" y="18" width="13" height="13" rx="2" ry="2" fill="#ebedf0"><title>2025-07-28 • no new files</title></rect>
<rect x="740" y="34" width="13" height="13" rx="2" ry="2" fill="#ebedf0"><title>2025-07-29 • no new files</title></rect>
<rect x="740" y="50" width="13" height="13" rx="2" ry="2" fill="#ebedf0"><title>2025-07-30 • no new files</title></rect>
<rect x="740" y="66" width="13" height="13" rx="2" ry="2" fill="#ebedf0"><title>2025-07-31 • no new files</title></rect>
<rect x="740" y="82" width="13" height="13" rx="2" ry="2" fill="#196127"><title>2025-08-01 • 9 file(s)
codeforces: 6
atcoder: 2
CSES: 1</title></rect>
<rect x="740" y="98" width="13" height="13" rx="2" ry="2" fill="#ebedf0"><title>2025-08-02 • no new files</title></rect>
<rect x="740" y="114" width="13" height="13" rx="2" ry="2" fill="#ebedf0"><title>2025-08-03 • no new files</title></rect>
<rect x="756" y="18" width="13" height="13" rx="2" ry="2" fill="#ebedf0"><title>2025-08-04 • no new files</title></rect>
<rect x="756" y="34" width="13" height="13" rx="2" ry="2" fill="#ebedf0"><title>2025-08-05 • no new files</title></rect>
<rect x="756" y="50" width="13" height="13" rx="2" ry="2" fill="#ebedf0"><title>2025-08-06 • no new files</title></rect>
<rect x="756" y="66" width="13" height="13" rx="2" ry="2" fill="#ebedf0"><title>2025-08-07 • no new files</title></rect>
<rect x="756" y="82" width="13" height="13" rx="2" ry="2" fill="#ebedf0"><title>2025-08-08 • no new files</title></rect>
<rect x="756" y="98" width="13" height="13" rx="2" ry="2" fill="#ebedf0"><title>2025-08-09 • no new files</title></rect>
<rect x="756" y="114" width="13" height="13" rx="2" ry="2" fill="#7bc96f"><title>2025-08-10 • 3 file(s)
codeforces: 3</title></rect>
<rect x="772" y="18" width="13" height="13" rx="2" ry="2" fill="#7bc96f"><title>2025-08-11 • 3 file(s)
CSES: 3</title></rect>
<rect x="772" y="34" width="13" height="13" rx="2" ry="2" fill="#7bc96f"><title>2025-08-12 • 3 file(s)
CSES: 3</title></rect>
<rect x="772" y="50" width="13" height="13" rx="2" ry="2" fill="#ebedf0"><title>2025-08-13 • no new files</title></rect>
<rect x="772" y="66" width="13" height="13" rx="2" ry="2" fill="#ebedf0"><title>2025-08-14 • no new files</title></rect>
<rect x="772" y="82" width="13" height="13" rx="2" ry="2" fill="#ebedf0"><title>2025-08-15 • no new files</title></rect>
<rect x="772" y="98" width="13" height="13" rx="2" ry="2" fill="#196127"><title>2025-08-16 • 7 file(s)
atcoder: 4
codechef: 3</title></rect>
<rect x="772" y="114" width="13" height="13" rx="2" ry="2" fill="#ebedf0"><title>2025-08-17 • no new files</title></rect>
<rect x="788" y="18" width="13" height="13" rx="2" ry="2" fill="#ebedf0"><title>2025-08-18 • no new files</title></rect>
<rect x="788" y="34" width="13" height="13" rx="2" ry="2" fill="#ebedf0"><title>2025-08-19 • no new files</title></rect>
<rect x="788" y="50" width="13" height="13" rx="2" ry="2" fill="#ebedf0"><title>2025-08-20 • no new files</title></rect>
<rect x="788" y="66" width="13" height="13" rx="2" ry="2" fill="#ebedf0"><title>2025-08-21 • no new files</title></rect>
<rect x="788" y="82" width="13" height="13" rx="2" ry="2" fill="#ebedf0"><title>2025-08-22 • no new files</title></rect>
<rect x="788" y="98" width="13" height="13" rx="2" ry="2" fill="#239a3b"><title>2025-08-23 • 5 file(s)
CSES: 5</title></rect>
<rect x="788" y="114" width="13" height="13" rx="2" ry="2" fill="#196127"><title>2025-08-24 • 17 file(s)
codeforces: 12
atcoder: 3
CSES: 2</title></rect>
<rect x="804" y="18" width="13" height="13" rx="2" ry="2" fill="#c6e48b"><title>2025-08-25 • 1 file(s)
codeforces: 1</title></rect>
<rect x="804" y="34" width="13" height="13" rx="2" ry="2" fill="#ebedf0"><title>2025-08-26 • no new files</title></rect>
<rect x="804" y="50" width="13" height="13" rx="2" ry="2" fill="#ebedf0"><title>2025-08-27 • no new files</title></rect>
<rect x="804" y="66" width="13" height="13" rx="2" ry="2" fill="#196127"><title>2025-08-28 • 7 file(s)
USACO: 3
codeforces: 2
CSES: 2</title></rect>
<rect x="804" y="82" width="13" height="13" rx="2" ry="2" fill="#ebedf0"><title>2025-08-29 • no new files</title></rect>
<rect x="804" y="98" width="13" height="13" rx="2" ry="2" fill="#ebedf0"><title>2025-08-30 • no new files</title></rect>
<rect x="804" y="114" width="13" height="13" rx="2" ry="2" fill="#7bc96f"><title>2025-08-31 • 4 file(s)
CSES: 4</title></rect>
<rect x="820" y="18" width="13" height="13" rx="2" ry="2" fill="#ebedf0"><title>2025-09-01 • no new files</title></rect>
<rect x="820" y="34" width="13" height="13" rx="2" ry="2" fill="#ebedf0"><title>2025-09-02 • no new files</title></rect>
<rect x="820" y="50" width="13" height="13" rx="2" ry="2" fill="#ebedf0"><title>2025-09-03 • no new files</title></rect>
<rect x="820" y="66" width="13" height="13" rx="2" ry="2" fill="#ebedf0"><title>2025-09-04 • no new files</title></rect>
<rect x="820" y="82" width="13" height="13" rx="2" ry="2" fill="#ebedf0"><title>2025-09-05 • no new files</title></rect>
<rect x="820" y="98" width="13" height="13" rx="2" ry="2" fill="#ebedf0"><title>2025-09-06 • no new files</title></rect>
<rect x="820" y="114" width="13" height="13" rx="2" ry="2" fill="#7bc96f"><title>2025-09-07 • 4 file(s)
codeforces: 2
CSES: 2</title></rect>
<rect x="836" y="18" width="13" height="13" rx="2" ry="2" fill="#c6e48b"><title>2025-09-08 • 2 file(s)
codeforces: 2</title></rect>
<rect x="836" y="34" width="13" height="13" rx="2" ry="2" fill="#c6e48b"><title>2025-09-09 • 1 file(s)
codeforces: 1</title></rect>
<rect x="836" y="50" width="13" height="13" rx="2" ry="2" fill="#ebedf0"><title>2025-09-10 • no new files</title></rect>
<rect x="836" y="66" width="13" height="13" rx="2" ry="2" fill="#ebedf0"><title>2025-09-11 • no new files</title></rect>
<rect x="836" y="82" width="13" height="13" rx="2" ry="2" fill="#ebedf0"><title>2025-09-12 • no new files</title></rect>
<rect x="836" y="98" width="13" height="13" rx="2" ry="2" fill="#c6e48b"><title>2025-09-13 • 1 file(s)
codeforces: 1</title></rect>
<rect x="836" y="114" width="13" height="13" rx="2" ry="2" fill="#ebedf0"><title>2025-09-14 • no new files</title></rect>
<rect x="852" y="18" width="13" height="13" rx="2" ry="2" fill="#ebedf0"><title>2025-09-15 • no new files</title></rect>
<rect x="852" y="34" width="13" height="13" rx="2" ry="2" fill="#ebedf0"><title>2025-09-16 • no new files</title></rect>
<rect x="852" y="50" width="13" height="13" rx="2" ry="2" fill="#7bc96f"><title>2025-09-17 • 3 file(s)
codeforces: 3</title></rect>
<rect x="852" y="66" width="13" height="13" rx="2" ry="2" fill="#ebedf0"><title>2025-09-18 • no new files</title></rect>
<rect x="852" y="82" width="13" height="13" rx="2" ry="2" fill="#ebedf0"><title>2025-09-19 • no new files</title></rect>
<rect x="852" y="98" width="13" height="13" rx="2" ry="2" fill="#ebedf0"><title>2025-09-20 • no new files</title></rect>
<rect x="852" y="114" width="13" height="13" rx="2" ry="2" fill="#ebedf0"><title>2025-09-21 • no new files</title></rect>
<rect x="868" y="18" width="13" height="13" rx="2" ry="2" fill="#ebedf0"><title>2025-09-22 • no new files</title></rect>
<rect x="868" y="34" width="13" height="13" rx="2" ry="2" fill="#ebedf0"><title>2025-09-23 • no new files</title></rect>
<rect x="868" y="50" width="13" height="13" rx="2" ry="2" fill="#ebedf0"><title>2025-09-24 • no new files</title></rect>
<text x="36" y="138" font-size="10" fill="#555">Intensity</text>
<g><rect x="36" y="144" width="13" height="13" rx="2" ry="2" fill="#ebedf0"><title>0</title></rect><text x="53" y="155" font-size="10" fill="#777">0</text></g>
<g><rect x="77" y="144" width="13" height="13" rx="2" ry="2" fill="#c6e48b"><title>1+</title></rect><text x="94" y="155" font-size="10" fill="#777">1+</text></g>
<g><rect x="118" y="144" width="13" height="13" rx="2" ry="2" fill="#7bc96f"><title>3+</title></rect><text x="135" y="155" font-size="10" fill="#777">3+</text></g>
<g><rect x="159" y="144" width="13" height="13" rx="2" ry="2" fill="#239a3b"><title>5+</title></rect><text x="176" y="155" font-size="10" fill="#777">5+</text></g>
<g><rect x="200" y="144" width="13" height="13" rx="2" ry="2" fill="#196127"><title>7+</title></rect><text x="217" y="155" font-size="10" fill="#777">7+</text></g>
<text x="245" y="155" font-size="10" fill="#777">2024-09-25 → 2025-09-24</text>
</svg>
<text x="12" y="192" font-size="20" font-weight="600">70 problems</text><text x="12" y="214" fill="#555" font-size="18">solved for all time</text>
<text x="306" y="192" font-size="20" font-weight="600">70 problems</text><text x="306" y="214" fill="#555" font-size="18">solved for the last year</text>
<text x="600" y="192" font-size="20" font-weight="600">22 problems</text><text x="600" y="214" fill="#555" font-size="18">solved for the last month</text>
<text x="12" y="252" font-size="20" font-weight="600">3 days</text><text x="12" y="274" fill="#555" font-size="18">in a row max.</text>
<text x="306" y="252" font-size="20" font-weight="600">3 days</text><text x="306" y="274" fill="#555" font-size="18">in a row for the last year</text>
<text x="600" y="252" font-size="20" font-weight="600">3 days</text><text x="600" y="274" fill="#555" font-size="18">in a row for the last month</text>
</svg>